<svg width="36" height="36" fill="none" xmlns="http://www.w3.org/2000/svg"><circle cx="18" cy="18" r="18" fill="#000"/><path d="M23.209 13.367c-.288 0-.563-.124-.755-.34l-1.004-1.13a.792.792 0 00-1.181 0l-.862.971a1.49 1.49 0 01-1.113.5H4.738A13.863 13.863 0 004 16.824h12.798c.226 0 .44-.091.596-.254l1.192-1.238a.788.788 0 01.569-.242h.05c.225 0 .44.096.59.265l1.004 1.13c.192.215.465.339.755.339H32c-.1-1.202-.352-2.36-.738-3.456l-8.053-.001zM11.746 24.088c.226 0 .44-.092.596-.254l1.192-1.238a.788.788 0 01.569-.242h.05c.225 0 .44.096.59.265l1.004 1.13c.192.215.465.339.755.339h14.156c.53-1.092.919-2.264 1.15-3.49H18.221c-.288 0-.563-.124-.755-.339l-1.004-1.13a.792.792 0 00-1.181 0l-.862.97a1.49 1.49 0 01-1.113.5H4.194c.232 1.227.62 2.398 1.15 3.49l6.402-.001zM21.789 9.591c.225 0 .44-.091.595-.253L23.576 8.1a.788.788 0 01.57-.243h.049c.225 0 .441.096.59.265l1.005 1.13c.191.215.465.34.754.34h2.692A14.048 14.048 0 0018 4c-4.593 0-8.67 2.196-11.235 5.591H21.79zM12.7 27.547c-.288 0-.563-.123-.755-.338l-1.004-1.13a.792.792 0 00-1.181 0l-.862.97a1.49 1.49 0 01-1.113.5h-.058A14.034 14.034 0 0018 32c4.056 0 7.708-1.714 10.273-4.451L12.7 27.547z" fill="#fff"/></svg>