<?xml version="1.0" encoding="UTF-8" standalone="no"?>
<svg
   width="48"
   height="48"
   viewBox="0 0 48 48"
   fill="none"
   version="1.1"
   id="svg16"
   sodipodi:docname="aptos-coin-3D.svg"
   inkscape:export-filename="aptos-coin-3D.png"
   inkscape:export-xdpi="960"
   inkscape:export-ydpi="960"
   inkscape:version="1.3.2 (091e20e, 2023-11-25)"
   xmlns:inkscape="http://www.inkscape.org/namespaces/inkscape"
   xmlns:sodipodi="http://sodipodi.sourceforge.net/DTD/sodipodi-0.dtd"
   xmlns="http://www.w3.org/2000/svg"
   xmlns:svg="http://www.w3.org/2000/svg">
  <sodipodi:namedview
     id="namedview16"
     pagecolor="#ffffff"
     bordercolor="#000000"
     borderopacity="0.25"
     inkscape:showpageshadow="2"
     inkscape:pageopacity="0.0"
     inkscape:pagecheckerboard="0"
     inkscape:deskcolor="#d1d1d1"
     inkscape:export-bgcolor="#ffffffff"
     inkscape:zoom="4.8163265"
     inkscape:cx="23.980932"
     inkscape:cy="24.292373"
     inkscape:window-width="1312"
     inkscape:window-height="477"
     inkscape:window-x="0"
     inkscape:window-y="25"
     inkscape:window-maximized="0"
     inkscape:current-layer="svg16" />
  <path
     opacity="0.52"
     d="m 27.3125,43 c -8.8366,0 -16,-2.9101 -16,-6.5 0,-3.5899 7.1634,-6.5 16,-6.5 8.8366,0 16,2.9101 16,6.5 0,3.5899 -7.1634,6.5 -16,6.5 z"
     fill="#181a1d"
     id="path1" />
  <path
     fill-rule="evenodd"
     clip-rule="evenodd"
     d="m 33.2981,10.2273 -3.797,-2.58299 -0.967,1.34202 C 23.2027,8.97465 16.797,12.7037 12.2538,19.009 7.71059,25.3143 6.29602,32.4386 8.13142,37.3022 L 7.16641,38.6414 10.92,41.1948 c 0.1445,0.1133 0.2935,0.2222 0.4469,0.3265 5.6832,3.8661 15.2946,0.055 21.4676,-8.5122 6.173,-8.5672 6.57,-18.6463 0.8868,-22.5123 -0.1388,-0.0944 -0.2799,-0.1843 -0.4232,-0.2695 z"
     fill="url(#paint0_radial_11078_89942)"
     id="path2"
     style="fill:url(#paint0_radial_11078_89942)" />
  <ellipse
     cx="28.263611"
     cy="8.8373289"
     rx="12.445501"
     ry="19.119604"
     transform="matrix(0.82682793,0.56245495,-0.58459286,0.81132681,0,0)"
     fill="url(#paint1_linear_11078_89942)"
     id="ellipse2"
     style="fill:url(#paint1_linear_11078_89942)" />
  <path
     d="M 27.109,29.5611 C 21.555,37.2693 12.9073,40.6982 7.794,37.2198 2.68065,33.7414 3.0379,24.6729 8.59195,16.9647 14.146,9.25653 22.7936,5.82761 27.907,9.306 c 5.1133,3.4784 4.7561,12.5469 -0.798,20.2551 z M 9.9774,17.9072 C 5.25447,24.4619 4.37444,32.5913 8.72262,35.5492 14.3091,39.0795 21.7391,35.6757 26.4621,29.121 31.185,22.5663 31.6687,14.0323 26.6361,10.8788 22.288,7.92093 14.7003,11.3525 9.9774,17.9072 Z"
     fill="url(#paint2_radial_11078_89942)"
     id="path3"
     style="fill:url(#paint2_radial_11078_89942)" />
  <path
     d="M 22.3752,22.3204 C 22.2603,22.2422 22.209,22.0865 22.234,21.8936 l 0.1329,-1.013 c 0.0197,-0.1507 -0.0205,-0.273 -0.1104,-0.3342 -0.09,-0.0612 -0.2214,-0.0568 -0.361,0.0136 l -0.8021,0.4018 c -0.2622,0.1312 -0.51,0.1408 -0.6798,0.0253 l -5.4093,-3.6797 c -0.6716,0.6137 -1.3187,1.3038 -1.9262,2.0643 l 5.1069,3.474 c 0.0899,0.0612 0.2186,0.0596 0.3572,-0.0044 l 1.0603,-0.4877 c 0.1323,-0.0612 0.2559,-0.0627 0.3415,-0.0045 l 0.0197,0.0134 c 0.09,0.0612 0.1307,0.1827 0.1104,0.3343 l -0.1328,1.013 c -0.025,0.1929 0.0258,0.3482 0.1412,0.4267 l 4.1684,2.8356 c 0.5276,-0.8148 0.9736,-1.6418 1.3373,-2.4649 z"
     fill="#000000"
     id="path4" />
  <path
     d="m 12.7395,26.2341 c 0.0899,0.0612 0.2186,0.0597 0.3572,-0.0043 l 1.0603,-0.4877 c 0.1323,-0.0613 0.2559,-0.0627 0.3415,-0.0045 l 0.0198,0.0134 c 0.0899,0.0612 0.1306,0.1827 0.1103,0.3342 l -0.1328,1.013 c -0.025,0.1929 0.0258,0.3482 0.1412,0.4268 l 5.6489,3.8427 c 0.727,-0.5713 1.4353,-1.2339 2.1065,-1.9745 l -5.4219,-3.6883 c -0.1149,-0.0782 -0.1662,-0.2338 -0.1412,-0.4267 l 0.1329,-1.013 c 0.0197,-0.1507 -0.0205,-0.273 -0.1104,-0.3342 -0.09,-0.0612 -0.2214,-0.0568 -0.361,0.0135 l -0.802,0.4019 c -0.2623,0.1311 -0.5101,0.1408 -0.6799,0.0253 L 11.373,21.8983 c -0.4871,0.867 -0.885,1.7396 -1.1887,2.5988 z"
     fill="#000000"
     id="path5" />
  <path
     d="m 23.5912,19.461 c 0.0899,0.0612 0.2186,0.0596 0.3572,-0.0044 l 1.0603,-0.4876 c 0.1323,-0.0613 0.2559,-0.0628 0.3415,-0.0046 l 0.0198,0.0135 c 0.0899,0.0611 0.1306,0.1827 0.1103,0.3342 l -0.1328,1.013 c -0.025,0.1929 0.0258,0.3482 0.1412,0.4267 l 1.0741,0.7307 c 0.5797,-2.9205 -0.0105,-5.4666 -1.8431,-6.7132 -1.8327,-1.2467 -4.4969,-0.9145 -7.1228,0.6141 z"
     fill="#000000"
     id="path6" />
  <path
     d="m 11.4865,28.7599 c -0.115,-0.0782 -0.1662,-0.2338 -0.1412,-0.4267 l 0.1328,-1.013 c 0.0198,-0.1507 -0.0204,-0.2731 -0.1104,-0.3342 -0.0899,-0.0612 -0.2214,-0.0568 -0.361,0.0135 l -0.802,0.4019 C 9.94247,27.5325 9.69468,27.5422 9.52488,27.4267 L 9.50179,27.411 c -0.26911,2.4903 0.37878,4.6043 1.99731,5.7054 1.6186,1.101 3.8846,0.9693 6.2009,-0.1285 z"
     fill="#000000"
     id="path7" />
  <path
     d="m 21.7463,21.4766 c -0.1149,-0.0782 -0.1662,-0.2338 -0.1412,-0.4267 l 0.1328,-1.013 c 0.0198,-0.1508 -0.0204,-0.2731 -0.1103,-0.3343 -0.09,-0.0611 -0.2214,-0.0568 -0.361,0.0136 l -0.8021,0.4019 c -0.2622,0.1311 -0.51,0.1408 -0.6798,0.0253 l -5.4094,-3.6798 c -0.6715,0.6137 -1.3186,1.3039 -1.9261,2.0644 l 5.1068,3.4739 c 0.09,0.0612 0.2187,0.0597 0.3573,-0.0044 l 1.0603,-0.4876 c 0.1323,-0.0613 0.2559,-0.0628 0.3415,-0.0045 l 0.0197,0.0134 c 0.09,0.0612 0.1307,0.1827 0.1104,0.3342 l -0.1328,1.013 c -0.025,0.1929 0.0258,0.3482 0.1412,0.4268 l 4.1684,2.8355 c 0.5276,-0.8148 0.9736,-1.6417 1.3373,-2.4648 z"
     fill="#ffffff"
     id="path8" />
  <path
     d="m 12.1106,25.3904 c 0.0899,0.0612 0.2186,0.0596 0.3572,-0.0044 l 1.0603,-0.4876 c 0.1323,-0.0613 0.2559,-0.0628 0.3415,-0.0046 l 0.0197,0.0135 c 0.09,0.0611 0.1307,0.1827 0.1104,0.3342 l -0.1328,1.013 c -0.025,0.1929 0.0258,0.3482 0.1412,0.4267 l 5.6489,3.8427 c 0.727,-0.5713 1.4353,-1.2339 2.1065,-1.9745 L 16.3416,24.8612 C 16.2267,24.783 16.1754,24.6273 16.2004,24.4344 l 0.1329,-1.013 c 0.0197,-0.1507 -0.0205,-0.273 -0.1104,-0.3342 -0.09,-0.0612 -0.2214,-0.0568 -0.361,0.0136 l -0.8021,0.4018 c -0.2622,0.1312 -0.51,0.1408 -0.6798,0.0253 l -3.6359,-2.4733 c -0.4871,0.867 -0.88498,1.7396 -1.18872,2.5988 z"
     fill="#ffffff"
     id="path9" />
  <path
     d="m 22.9623,18.6172 c 0.0899,0.0612 0.2186,0.0597 0.3572,-0.0043 l 1.0603,-0.4877 c 0.1323,-0.0613 0.2559,-0.0627 0.3415,-0.0045 l 0.0198,0.0134 c 0.0899,0.0612 0.1306,0.1827 0.1103,0.3342 l -0.1328,1.013 c -0.025,0.1929 0.0258,0.3482 0.1412,0.4268 l 1.0741,0.7306 c 0.5797,-2.9204 -0.0105,-5.4665 -1.8431,-6.7132 -1.8327,-1.2467 -4.4969,-0.9144 -7.1228,0.6141 z"
     fill="#ffffff"
     id="path10" />
  <path
     d="m 10.8576,27.9162 c -0.115,-0.0782 -0.1662,-0.2339 -0.1412,-0.4268 l 0.1328,-1.013 c 0.0197,-0.1507 -0.0204,-0.273 -0.1104,-0.3342 -0.0899,-0.0612 -0.2214,-0.0568 -0.361,0.0136 l -0.802,0.4018 C 9.31357,26.6888 9.06577,26.6984 8.89598,26.5829 L 8.87289,26.5672 c -0.26912,2.4904 0.37877,4.6044 1.99731,5.7054 1.6186,1.1011 3.8846,0.9693 6.2009,-0.1285 z"
     fill="#ffffff"
     id="path11" />
  <defs
     id="defs16">
    <radialGradient
       id="paint0_radial_11078_89942"
       cx="0"
       cy="0"
       r="1"
       gradientUnits="userSpaceOnUse"
       gradientTransform="matrix(-39.761135,15.082401,-19.63802,-51.770932,38.9291,24.7771)">
      <stop
         id="stop11" />
      <stop
         offset="1"
         stop-color="#666666"
         id="stop12" />
    </radialGradient>
    <linearGradient
       id="paint1_linear_11078_89942"
       x1="12.4455"
       y1="0"
       x2="12.4455"
       y2="38.2393"
       gradientUnits="userSpaceOnUse"
       gradientTransform="translate(15.81811,-10.282276)">
      <stop
         id="stop13" />
      <stop
         offset="1"
         stop-color="#585858"
         id="stop14" />
    </linearGradient>
    <radialGradient
       id="paint2_radial_11078_89942"
       cx="0"
       cy="0"
       r="1"
       gradientUnits="userSpaceOnUse"
       gradientTransform="matrix(21.613021,13.950701,-55.43208,85.877741,10.5013,16.0083)">
      <stop
         stop-opacity="0.8"
         id="stop15" />
      <stop
         offset="1"
         stop-color="#585858"
         id="stop16" />
    </radialGradient>
  </defs>
</svg>
